<svg width="48" height="42" viewBox="0 0 48 42" fill="none" xmlns="http://www.w3.org/2000/svg">
<path d="M1.44263 20.9705V41.4783H47.3411V0.462646H1.44263V20.9705ZM38.4294 19.3298C39.5287 19.5578 40.5279 20.0716 41.3008 20.8064C41.7263 21.2023 42.0963 21.643 42.4024 22.1189C42.4024 22.1714 40.4196 23.3691 39.2115 24.0384C39.1675 24.0647 38.9912 23.8941 38.7966 23.6348C38.5761 23.2948 38.2627 23.0102 37.8858 22.8077C37.5089 22.6051 37.0807 22.4912 36.6412 22.4766C35.2496 22.3912 34.3536 23.0442 34.361 24.1172C34.3495 24.3843 34.4179 24.6494 34.5593 24.885C34.864 25.4526 35.4332 25.7906 37.2177 26.4797C40.504 27.743 41.9104 28.5764 42.7843 29.7609C43.761 31.0734 43.9776 33.1931 43.3167 34.7616C42.5823 36.4678 40.7831 37.6261 38.2385 38.01C37.0763 38.1289 35.902 38.1179 34.7429 37.9772C32.9738 37.7207 31.3419 36.968 30.0833 35.828C29.661 35.4112 28.8385 34.3251 28.8899 34.2464C29.0239 34.1575 29.1651 34.0774 29.3122 34.0069L31.0012 33.1406L32.3194 32.4581L32.5948 32.8223C33.0596 33.4164 33.651 33.9227 34.3353 34.312C35.804 35.0011 37.8089 34.9059 38.8003 34.1086C39.1331 33.8164 39.3408 33.4292 39.3871 33.0143C39.4334 32.5994 39.3154 32.1831 39.0536 31.838C38.6865 31.3819 37.9521 30.998 35.8995 30.1973C33.5311 29.2851 32.5104 28.7208 31.5777 27.8217C30.9955 27.2284 30.5656 26.5285 30.3183 25.7709C30.1338 24.9055 30.1065 24.0191 30.2375 23.1459C30.7258 21.1017 32.4406 19.6744 34.9448 19.2511C36.1045 19.1229 37.2793 19.1516 38.4294 19.3364V19.3298ZM27.6561 21.0492V22.7292H21.6967V37.8984H17.4704V22.7259H11.4962V21.0853C11.4802 20.5205 11.4973 19.9554 11.5476 19.3922C11.5697 19.3659 15.2195 19.3528 19.6258 19.3594H27.6341L27.6561 21.0492Z" fill="url(#paint0_linear_3051_8)"/>
<defs>
<linearGradient id="paint0_linear_3051_8" x1="24.3918" y1="0.462646" x2="24.3918" y2="41.4783" gradientUnits="userSpaceOnUse">
<stop stop-color="#FDFDFD"/>
<stop offset="1" stop-color="white" stop-opacity="0.18"/>
</linearGradient>
</defs>
</svg>
